<svg xmlns="http://www.w3.org/2000/svg" width="1200" height="630" viewBox="0 0 1200 630" role="img" aria-label="Wave Grid preview image">
  <defs>
    <linearGradient id="bg" x1="0" y1="0" x2="1" y2="1">
      <stop offset="0%" stop-color="#050505"/>
      <stop offset="100%" stop-color="#111827"/>
    </linearGradient>
    <radialGradient id="glowA" cx="0.2" cy="0.22" r="0.42">
      <stop offset="0%" stop-color="#f97316" stop-opacity="0.9"/>
      <stop offset="100%" stop-color="#f97316" stop-opacity="0"/>
    </radialGradient>
    <radialGradient id="glowB" cx="0.82" cy="0.2" r="0.46">
      <stop offset="0%" stop-color="#6366f1" stop-opacity="0.92"/>
      <stop offset="100%" stop-color="#6366f1" stop-opacity="0"/>
    </radialGradient>
    <radialGradient id="glowC" cx="0.6" cy="0.8" r="0.4">
      <stop offset="0%" stop-color="#06b6d4" stop-opacity="0.6"/>
      <stop offset="100%" stop-color="#06b6d4" stop-opacity="0"/>
    </radialGradient>
    <filter id="blur" x="-20%" y="-20%" width="140%" height="140%">
      <feGaussianBlur stdDeviation="26"/>
    </filter>
  </defs>

  <rect width="1200" height="630" fill="url(#bg)"/>
  <rect width="1200" height="630" fill="url(#glowA)"/>
  <rect width="1200" height="630" fill="url(#glowB)"/>
  <rect width="1200" height="630" fill="url(#glowC)"/>

  <g opacity="0.22">
    <path d="M0 110H1200" stroke="#ffffff" stroke-width="1"/>
    <path d="M0 170H1200" stroke="#ffffff" stroke-width="1"/>
    <path d="M0 230H1200" stroke="#ffffff" stroke-width="1"/>
    <path d="M0 290H1200" stroke="#ffffff" stroke-width="1"/>
    <path d="M0 350H1200" stroke="#ffffff" stroke-width="1"/>
    <path d="M0 410H1200" stroke="#ffffff" stroke-width="1"/>
    <path d="M0 470H1200" stroke="#ffffff" stroke-width="1"/>
    <path d="M0 530H1200" stroke="#ffffff" stroke-width="1"/>
    <path d="M100 0V630" stroke="#ffffff" stroke-width="1"/>
    <path d="M220 0V630" stroke="#ffffff" stroke-width="1"/>
    <path d="M340 0V630" stroke="#ffffff" stroke-width="1"/>
    <path d="M460 0V630" stroke="#ffffff" stroke-width="1"/>
    <path d="M580 0V630" stroke="#ffffff" stroke-width="1"/>
    <path d="M700 0V630" stroke="#ffffff" stroke-width="1"/>
    <path d="M820 0V630" stroke="#ffffff" stroke-width="1"/>
    <path d="M940 0V630" stroke="#ffffff" stroke-width="1"/>
    <path d="M1060 0V630" stroke="#ffffff" stroke-width="1"/>
  </g>

  <g filter="url(#blur)" opacity="0.9">
    <circle cx="830" cy="190" r="82" fill="#6366f1"/>
    <circle cx="370" cy="230" r="78" fill="#f97316"/>
    <circle cx="730" cy="410" r="64" fill="#06b6d4"/>
  </g>

  <rect x="56" y="54" width="230" height="48" rx="24" fill="rgba(255,255,255,0.08)" stroke="rgba(255,255,255,0.16)"/>
  <text x="84" y="85" font-family="'IBM Plex Mono', monospace" font-size="18" letter-spacing="2" fill="#e5e7eb">UX LAB / STUDY 05</text>

  <text x="56" y="248" font-family="'Sora', Arial, sans-serif" font-size="120" font-weight="800" letter-spacing="-7" fill="#f8fafc">WAVE</text>
  <text x="56" y="348" font-family="'Sora', Arial, sans-serif" font-size="120" font-weight="800" letter-spacing="-7" fill="#94a3b8">GRID</text>
  <text x="60" y="410" font-family="'Inter', Arial, sans-serif" font-size="30" fill="#cbd5e1">Reactive canvas field with click-triggered pulses and masked overlays.</text>

  <g transform="translate(710 388)">
    <rect x="0" y="0" width="420" height="172" rx="30" fill="rgba(8,8,8,0.68)" stroke="rgba(255,255,255,0.12)"/>
    <text x="36" y="52" font-family="'IBM Plex Mono', monospace" font-size="18" letter-spacing="2" fill="#cbd5e1">CANVAS FIELD</text>
    <text x="36" y="95" font-family="'Sora', Arial, sans-serif" font-size="44" font-weight="700" letter-spacing="-2" fill="#f8fafc">Pointer bloom</text>
    <text x="36" y="135" font-family="'Inter', Arial, sans-serif" font-size="22" fill="#cbd5e1">Density, wave speed and geometry respond live.</text>
  </g>

  <g>
    <circle cx="890" cy="226" r="16" fill="#ffffff" opacity="0.95"/>
    <rect x="960" y="210" width="38" height="78" rx="19" fill="#06b6d4"/>
    <path d="M1036 226l12 24 26 4-19 18 5 26-24-13-23 13 5-26-19-18 26-4z" fill="#f97316"/>
    <path d="M862 308l11 21 24 3-17 16 4 23-22-11-22 11 4-23-17-16 24-3z" fill="#a78bfa"/>
    <circle cx="1010" cy="332" r="14" fill="#22c55e"/>
  </g>

  <text x="56" y="582" font-family="'Space Grotesk', Arial, sans-serif" font-size="26" font-weight="700" fill="#f8fafc">NOUSTELOS_STUDIO</text>
  <text x="332" y="582" font-family="'Space Grotesk', Arial, sans-serif" font-size="26" font-weight="700" fill="#64748b">/&gt;</text>
</svg>